# Unit plate for a QR target station.
# A 1x1 quad in the XY plane facing +Z, with explicit UVs so the texture
# mapping is identical in every renderer. Scaled to the plate size by the SDF.
#
# Winding: v1..v4 run counter-clockwise seen from +Z and UV (0,0) is the image
# bottom-left, so texture-right x texture-up == +normal and the code is NOT
# mirrored. A mirrored QR moves its third finder pattern to the bottom-right
# and is unreadable by OpenCV < 4.7.
mtllib plate.mtl
o qr_plate_target_2
v -0.5 -0.5 0.0
v  0.5 -0.5 0.0
v  0.5  0.5 0.0
v -0.5  0.5 0.0
vt 0.0 0.0
vt 1.0 0.0
vt 1.0 1.0
vt 0.0 1.0
vn 0.0 0.0 1.0
usemtl qr_material_target_2
f 1/1/1 2/2/1 3/3/1 4/4/1
